HIERARCHY
ROOT root
{
	OFFSET 0.000000 0.000000 0.000000
	CHANNELS 6 Xposition Yposition Zposition Zrotation Yrotation Xrotation
	JOINT lhip
	{
		OFFSET 0.058581 -0.082280 -0.017664
		CHANNELS 3 Zrotation Yrotation Xrotation
		JOINT lknee
		{
			OFFSET 0.043451 -0.386469 0.008037
			CHANNELS 3 Zrotation Yrotation Xrotation
			JOINT lankle
			{
				OFFSET -0.014790 -0.426874 -0.037428
				CHANNELS 3 Zrotation Yrotation Xrotation
				JOINT ltoe
				{
					OFFSET 0.041054 -0.060286 0.122042
					CHANNELS 3 Zrotation Yrotation Xrotation
					End Site
					{
						OFFSET 0.000000 0.000000 0.000000
					}
				}
			}
		}
	}
	JOINT rhip
	{
		OFFSET -0.060310 -0.090513 -0.013543
		CHANNELS 3 Zrotation Yrotation Xrotation
		JOINT rknee
		{
			OFFSET -0.043257 -0.383688 -0.004843
			CHANNELS 3 Zrotation Yrotation Xrotation
			JOINT rankle
			{
				OFFSET 0.019056 -0.420046 -0.034562
				CHANNELS 3 Zrotation Yrotation Xrotation
				JOINT rtoe
				{
					OFFSET -0.034840 -0.062106 0.130323
					CHANNELS 3 Zrotation Yrotation Xrotation
					End Site
					{
						OFFSET 0.000000 0.000000 0.000000
					}
				}
			}
		}
	}
	JOINT lowerback
	{
		OFFSET 0.004439 0.124404 -0.038385
		CHANNELS 3 Zrotation Yrotation Xrotation
		JOINT upperback
		{
			OFFSET 0.004488 0.137956 0.026820
			CHANNELS 3 Zrotation Yrotation Xrotation
			JOINT chest
			{
				OFFSET -0.002265 0.056032 0.002855
				CHANNELS 3 Zrotation Yrotation Xrotation
				JOINT lowerneck
				{
					OFFSET -0.013390 0.211636 -0.033468
					CHANNELS 3 Zrotation Yrotation Xrotation
					JOINT upperneck
					{
						OFFSET 0.010113 0.088937 0.050410
						CHANNELS 3 Zrotation Yrotation Xrotation
						End Site
						{
							OFFSET 0.000000 0.000000 0.000000
						}
					}
				}
				JOINT lclavicle
				{
					OFFSET 0.071702 0.114000 -0.018898
					CHANNELS 3 Zrotation Yrotation Xrotation
					JOINT lshoulder
					{
						OFFSET 0.122921 0.045205 -0.019046
						CHANNELS 3 Zrotation Yrotation Xrotation
						JOINT lelbow
						{
							OFFSET 0.255332 -0.015649 -0.022946
							CHANNELS 3 Zrotation Yrotation Xrotation
							JOINT lwrist
							{
								OFFSET 0.265709 0.012698 -0.007375
								CHANNELS 3 Zrotation Yrotation Xrotation
								End Site
								{
									OFFSET 0.000000 0.000000 0.000000
								}
							}
						}
					}
				}
				JOINT rclavicle
				{
					OFFSET -0.082954 0.112472 -0.023707
					CHANNELS 3 Zrotation Yrotation Xrotation
					JOINT rshoulder
					{
						OFFSET -0.113228 0.046853 -0.008472
						CHANNELS 3 Zrotation Yrotation Xrotation
						JOINT relbow
						{
							OFFSET -0.260127 -0.014369 -0.031269
							CHANNELS 3 Zrotation Yrotation Xrotation
							JOINT rwrist
							{
								OFFSET -0.269108 0.006794 -0.006027
								CHANNELS 3 Zrotation Yrotation Xrotation
								End Site
								{
									OFFSET 0.000000 0.000000 0.000000
								}
							}
						}
					}
				}
			}
		}
	}
}
MOTION
Frames: 7
Frame Time: 0.033333
0.070174 1.434555 1.015480 -6.161375 0.308562 83.687676 -4.409376 2.788338 6.234483 1.138668 -5.125942 2.571725 4.816350 13.875731 -10.695827 0.000000 -0.000000 0.000000 -0.204519 -6.046833 2.569259 -3.392950 -5.476860 2.446934 1.853720 -14.672277 -8.102740 0.000000 -0.000000 0.000000 -4.786813 4.103043 9.067377 -0.932367 -2.023075 7.196351 -1.216859 1.160406 -3.677900 3.443639 -11.013693 -3.201297 8.949141 -10.811092 6.315560 -30.733488 -9.049843 6.807960 -42.960874 -4.711283 15.260843 0.677786 -20.679034 5.398827 -6.073710 -2.680801 6.418322 29.302984 13.968189 9.247408 51.998268 -0.128121 15.562927 -7.174452 25.025061 -4.393956 5.594793 6.437057 -8.228938 
0.070270 1.435022 1.015279 -6.186941 0.465912 83.871989 -4.271480 2.697577 5.862687 1.134540 -5.052390 2.830063 4.547196 13.938301 -10.733628 0.000000 -0.000000 0.000000 -0.001239 -6.039029 2.288377 -3.419981 -5.537547 2.527613 1.676975 -14.606234 -8.025809 0.000000 -0.000000 0.000000 -4.650024 4.231337 8.556743 -0.800953 -1.968943 7.808905 -1.373007 1.295556 -3.869534 3.419892 -11.207713 -2.135527 9.010854 -11.113069 5.925873 -30.335594 -8.225817 5.639081 -43.236554 -5.082865 15.094308 0.722710 -19.910659 3.127986 -5.774669 -2.685369 5.404688 29.131900 13.371538 8.575886 51.970022 0.012587 15.660822 -6.919690 24.460512 -4.767981 5.590131 6.535200 -7.420551 
0.070478 1.435183 1.015041 -6.219515 0.498615 83.916780 -4.259739 2.664103 5.788317 1.205325 -5.003671 2.736153 4.583405 13.980066 -10.700663 0.000000 -0.000000 0.000000 0.018855 -6.052550 2.222103 -3.397938 -5.546724 2.494413 1.608156 -14.539446 -7.904942 0.000000 -0.000000 0.000000 -4.700176 4.335612 8.327475 -0.690615 -1.883733 8.205038 -1.411075 1.404720 -3.773335 3.558330 -11.416450 -1.803350 8.981621 -11.264652 5.878448 -30.233690 -7.553607 4.574361 -43.220191 -5.651035 14.636974 0.818538 -19.197571 1.113137 -5.167163 -2.862047 4.497941 29.024759 12.934815 7.979566 51.814919 0.172370 15.806963 -6.875315 24.288898 -5.101535 5.613741 6.634296 -6.617234 
0.071143 1.435305 1.014532 -6.265934 0.506517 83.975019 -4.283280 2.608134 5.758882 1.177461 -4.953877 2.623022 4.751551 13.880259 -10.615850 0.000000 -0.000000 0.000000 -0.026262 -6.050252 2.104747 -3.359826 -5.671843 2.534606 1.497537 -14.352109 -7.862652 0.000000 -0.000000 0.000000 -4.663250 4.471816 8.280613 -0.666161 -1.729701 8.414952 -1.429946 1.539254 -3.751993 3.609257 -11.537260 -1.530444 8.949899 -11.407286 6.122087 -30.368882 -7.300364 4.046230 -43.360109 -6.056978 13.979673 1.807210 -18.696798 -1.559933 -3.554518 -3.065753 3.594550 29.246897 12.776370 8.071320 51.600586 0.396358 15.645972 -7.354551 24.300011 -6.009051 5.186660 6.749545 -6.356257 
0.071474 1.435362 1.014341 -6.248102 0.501978 83.988585 -4.325080 2.561026 5.705729 1.192827 -4.888298 2.674368 4.788736 13.880317 -10.603394 0.000000 -0.000000 0.000000 -0.060525 -6.059191 2.089609 -3.329440 -5.708759 2.497552 1.480391 -14.350458 -7.851647 0.000000 -0.000000 0.000000 -4.591948 4.486117 8.384878 -0.711285 -1.733907 8.391961 -1.436260 1.557375 -3.802164 3.596309 -11.439585 -1.575561 8.952708 -11.446864 6.273957 -30.541558 -7.405690 4.167147 -43.297996 -6.154942 13.655782 1.933541 -18.420105 -2.228637 -3.871670 -2.906977 3.114270 29.399362 12.893501 8.233113 51.632053 0.454687 15.552622 -7.689090 24.198153 -6.480396 5.177686 6.721608 -6.521216 
0.071836 1.435662 1.014161 -6.218200 0.453367 83.874082 -4.393144 2.562471 5.956160 1.215173 -4.622408 2.447278 4.776718 13.679709 -10.658768 0.000000 -0.000000 0.000000 -0.154295 -6.050276 2.256547 -3.315568 -5.857894 2.369715 1.416618 -14.226998 -7.774796 0.000000 -0.000000 0.000000 -4.519130 4.534839 8.485029 -0.796781 -1.604677 8.701340 -1.432103 1.560845 -3.936299 3.568235 -11.132779 -1.809462 8.933664 -11.427524 6.546555 -30.933978 -7.797454 4.635751 -43.155163 -6.542575 13.294126 2.440682 -18.768993 -2.606066 -3.551933 -3.764165 2.811673 29.748721 13.228375 8.635840 51.850336 0.853868 15.126359 -8.289785 23.562066 -7.629892 5.049901 6.756410 -7.330761 
0.072192 1.436010 1.013860 -6.016646 0.427281 83.923203 -4.419353 2.616618 5.866324 1.199075 -4.696519 2.418835 4.547970 13.530025 -10.564489 0.000000 -0.000000 0.000000 -0.204841 -6.096072 2.233564 -3.323331 -6.004714 2.280835 1.360955 -14.235184 -7.743364 0.000000 -0.000000 0.000000 -4.502146 4.504500 8.549033 -0.785844 -1.658336 8.705877 -1.369421 1.538330 -3.954986 3.507187 -11.006987 -1.894107 8.924441 -11.414725 6.438009 -30.873352 -8.090341 4.799958 -43.634350 -6.881839 13.318337 2.488075 -18.486468 -2.727726 -3.150028 -3.780945 2.709074 29.914788 13.513037 8.745069 52.234047 1.403970 14.858676 -8.740770 22.645896 -8.569374 4.926081 6.544047 -7.744871 
